HIERARCHY
ROOT ui
{
	 OFFSET 0 0 0
	 CHANNELS 3 XPosition YPosition Z Position
	 EndSite
	 {
	 OFFSET 0 -1 0
	 }
}
ROOT li
{
	 OFFSET 0 0 0
	 CHANNELS 3 XPosition YPosition Z Position
	 EndSite
	 {
	 OFFSET 0 -1 0
	 }
}
ROOT ul
{
	 OFFSET 0 0 0
	 CHANNELS 3 XPosition YPosition Z Position
	 EndSite
	 {
	 OFFSET 0 -1 0
	 }
}
ROOT ll
{
	 OFFSET 0 0 0
	 CHANNELS 3 XPosition YPosition Z Position
	 EndSite
	 {
	 OFFSET 0 -1 0
	 }
}
ROOT tt
{
	 OFFSET 0 0 0
	 CHANNELS 3 XPosition YPosition Z Position
	 EndSite
	 {
	 OFFSET 0 -1 0
	 }
}
ROOT tb
{
	 OFFSET 0 0 0
	 CHANNELS 3 XPosition YPosition Z Position
	 EndSite
	 {
	 OFFSET 0 -1 0
	 }
}
ROOT td
{
	 OFFSET 0 0 0
	 CHANNELS 3 XPosition YPosition Z Position
	 EndSite
	 {
	 OFFSET 0 -1 0
	 }
}
ROOT v
{
	 OFFSET 0 0 0
	 CHANNELS 3 XPosition YPosition Z Position
	 EndSite
	 {
	 OFFSET 0 -1 0
	 }
}
ROOT bn
{
	 OFFSET 0 0 0
	 CHANNELS 3 XPosition YPosition Z Position
	 EndSite
	 {
	 OFFSET 0 -1 0
	 }
}
MOTION
Frames: 24
Frame Time: 0.002
0.0014494819641113282	-0.0018334740400314331	0		0.5637850341796875	-2.47500634765625	0		-1.1556475830078126	-0.0024666049480438234	0		-0.6977501831054688	-2.671357666015625	0		1.6364888916015625	-0.8141973266601562	0		3.25913623046875	-0.04728554534912109	0		4.6854287109375	0.20902487182617188	0		5.62855322265625	0.21664982604980468	0		-0.3783336486816406	5.8973369140625	0		
0.015625117301940918	0.006454639911651612	0		0.560767822265625	-2.477518798828125	0		-1.156582763671875	-0.0029643750190734863	0		-0.7445943603515625	-2.659294921875	0		1.635534912109375	-0.8147598266601562	0		3.294309326171875	-0.03933419036865234	0		4.6883984375	0.20034254455566405	0		5.6172744140625	0.2331409454345703	0		-0.3801195373535156	5.89783349609375	0		
-0.010287601470947266	0.007232970237731934	0		0.5597787475585938	-2.478065673828125	0		-1.1515728759765624	-0.008542744636535645	0		-0.71265283203125	-2.665219970703125	0		1.6345872802734376	-0.8153334350585938	0		3.244496826171875	-0.03033909797668457	0		4.69356298828125	0.20661747741699218	0		5.62080078125	0.21455213928222655	0		-0.41497186279296877	5.891734375	0		
0.023676382064819337	-0.0037365939617156983	0		0.5608292846679688	-2.47663916015625	0		-1.145544677734375	-0.014132680892944336	0		-0.77064013671875	-2.6660224609375	0		1.6426190185546874	-0.8190223999023437	0		3.248499755859375	-0.038020492553710934	0		4.6906474609375	0.204984619140625	0		5.62434033203125	0.195946533203125	0		-0.3806644592285156	5.8957744140625	0		
0.012871492385864257	0.0018601959943771362	0		0.5649671020507813	-2.4702451171875	0		-1.134301513671875	-0.004779160022735596	0		-0.7315604248046875	-2.664029296875	0		1.647802734375	-0.8126708984375	0		3.273691162109375	-0.03296389389038086	0		4.69384765625	0.21027659606933594	0		5.6224345703125	0.2242188415527344	0		-0.3652700500488281	5.904056640625	0		
0.019149908065795897	0.011256388664245606	0		0.5589625854492187	-2.477712646484375	0		-1.15420947265625	-0.010022791862487793	0		-0.7704926147460938	-2.66504638671875	0		1.6798173828125	-0.8226461791992188	0		3.257120849609375	-0.011373190879821778	0		4.702181640625	0.22351368713378905	0		5.62182763671875	0.22305409240722657	0		-0.3489869689941406	5.9003388671875	0		
0.0071649918556213376	-0.00310152006149292	0		0.5560556640625	-2.480200439453125	0		-1.1609564208984375	-0.005411056995391845	0		-0.7384454345703125	-2.670935546875	0		1.636961669921875	-0.824663330078125	0		3.24316064453125	-0.02380000877380371	0		4.69322802734375	0.21098207092285157	0		5.6183310546875	0.20989434814453126	0		-0.38368609619140626	5.8952802734375	0		
-0.014506924629211425	0.004688148021697998	0		0.5292488403320312	-2.47736328125	0		-1.15579443359375	-0.010926609992980956	0		-0.7413228149414063	-2.67336279296875	0		1.675135009765625	-0.8276767578125	0		3.251359619140625	-0.026482160568237306	0		4.69653515625	0.21631999206542968	0		5.617775390625	0.2087941436767578	0		-0.38428836059570315	5.8948173828125	0		
-0.015247154235839843	0.004240742206573486	0		0.55642138671875	-2.479180419921875	0		-1.145561279296875	-0.013479565620422363	0		-0.7750753173828125	-2.668372314453125	0		1.6253743896484374	-0.8275543212890625	0		3.27359130859375	-0.029315214157104492	0		4.69580126953125	0.21573524475097655	0		5.62143359375	0.1903101806640625	0		-0.36973171997070314	5.9041904296875	0		
7.137000095099211E-6	6.204259991645813E-4	0		0.5317084350585938	-2.474311279296875	0		-1.149154052734375	-0.004827599048614502	0		-0.73887451171875	-2.67023681640625	0		1.6876895751953125	-0.8248177490234375	0		3.252138916015625	-0.009563790321350098	0		4.69917626953125	0.22113014221191407	0		5.623841796875	0.2013307342529297	0		-0.37026779174804686	5.90378271484375	0		
0.015449169158935547	0.009029949188232422	0		0.5808744506835938	-2.482346923828125	0		-1.1469395751953124	-0.014219030380249024	0		-0.7416464233398438	-2.6725771484375	0		1.64597314453125	-0.8267317504882813	0		3.265352294921875	-0.019219694137573243	0		4.69851171875	0.22061013793945314	0		5.6120673828125	0.22322889709472657	0		-0.35663275146484374	5.91422802734375	0		
-0.01725729179382324	0.003083292007446289	0		0.5542002563476562	-2.48038623046875	0		-1.158546630859375	-0.012401242256164551	0		-0.709406982421875	-2.67732958984375	0		1.6782000732421876	-0.8365501098632813	0		3.292869140625	-0.008021021842956543	0		4.697884765625	0.220126220703125	0		5.62222021484375	0.20472305297851562	0		-0.37124066162109376	5.90306298828125	0		
0.017019351959228515	-0.0076821489334106445	0		0.5494896240234375	-2.48467041015625	0		-1.1650758056640624	-0.00761453914642334	0		-0.7480819702148438	-2.678146728515625	0		1.638613037109375	-0.8344190063476562	0		3.25921484375	-0.013009306907653808	0		4.7023994140625	0.22761465454101562	0		5.615375	0.2041083068847656	0		-0.4067228698730469	5.89919873046875	0		
-0.018401762008666993	0.002475981950759888	0		0.5529241333007813	-2.48102392578125	0		-1.22569921875	-0.013104974746704101	0		-0.7456651611328124	-2.675453369140625	0		1.6830999755859375	-0.8303245239257813	0		3.247740478515625	-0.007241902828216552	0		4.696751953125	0.21926895141601563	0		5.614978515625	0.2033609619140625	0		-0.37207235717773435	5.902474609375	0		
0.026086526870727537	0.0016458380222320558	0		0.5564177856445313	-2.476343994140625	0		-1.1411378173828124	-0.00841738224029541	0		-0.7771478881835937	-2.66829345703125	0		1.648689208984375	-0.8211868896484374	0		3.2832421875	-0.007038463115692139	0		4.693416015625	0.23193434143066408	0		5.62171826171875	0.19727027893066407	0		-0.3563192749023438	5.9110234375	0		
6.249989867210388E-4	0.0017440390586853027	0		0.5518319702148438	-2.481527099609375	0		-1.158510498046875	-0.001394791007041931	0		-0.7117952880859375	-2.67834228515625	0		1.68413916015625	-0.8269086303710937	0		3.272971435546875	0.0077893538475036625	0		4.70804638671875	0.23840902709960937	0		5.6142802734375	0.2020717315673828	0		-0.3586176452636719	5.9128359375	0		
0.005191996097564698	4.909400045871735E-4	0		0.5394483642578125	-2.47457470703125	0		-1.1541490478515626	-0.01862101364135742	0		-0.7862423706054688	-2.675565185546875	0		1.6837010498046876	-0.8271347045898437	0		3.258385986328125	-0.005290884017944336	0		4.7076318359375	0.23811627197265625	0		5.61397802734375	0.20153369140625	0		-0.37304718017578126	5.90183544921875	0		
-0.014081600189208985	0.008577677726745605	0		0.5489031372070312	-2.48387060546875	0		-1.154527587890625	-0.01875434684753418	0		-0.7527421875	-2.68114306640625	0		1.6812548828125	-0.8312999267578125	0		3.262084716796875	4.337179958820343E-4	0		4.7001044921875	0.22595426940917968	0		5.61078955078125	0.18904667663574218	0		-0.38843212890625	5.8918798828125	0		
0.014358349800109863	-0.008920380592346192	0		0.5505433959960937	-2.482032958984375	0		-1.1467772216796874	-0.011962509155273438	0		-0.78706396484375	-2.6758173828125	0		1.6829517822265625	-0.827483642578125	0		3.28164111328125	-0.008010499954223633	0		4.6979248046875	0.23776487731933593	0		5.61764990234375	0.18323683166503907	0		-0.35939248657226563	5.9123857421875	0		
-0.010683419227600098	0.011303033828735352	0		0.5522252807617187	-2.480165283203125	0		-1.143040771484375	-0.009092073440551757	0		-0.750427001953125	-2.67737841796875	0		1.685674560546875	-0.8246483154296875	0		3.274597900390625	0.011925334930419923	0		4.70662646484375	0.23747196960449218	0		5.6174326171875	0.18290621948242186	0		-0.3595939331054688	5.912294921875	0		
0.01099648380279541	0.006948942184448242	0		0.549895263671875	-2.48221826171875	0		-1.1542808837890626	-0.007003345966339111	0		-0.7517600708007812	-2.679424560546875	0		1.685395263671875	-0.8247443237304688	0		3.27015087890625	-0.0021418910026550293	0		4.70044140625	0.2434072265625	0		5.61305322265625	0.20007177734375	0		-0.3739120788574219	5.9014111328125	0		
-0.011442693710327148	-0.008812470436096191	0		0.5476021728515625	-2.48424658203125	0		-1.158566650390625	-0.010982902526855468	0		-0.7540557861328125	-2.681435546875	0		1.6821114501953125	-0.8277747802734375	0		3.283070556640625	0.009598374366760254	0		4.70613232421875	0.23722039794921876	0		5.61288525390625	0.19986262512207031	0		-0.37406756591796875	5.901369140625	0		
0.0034683239459991455	-3.463700041174889E-5	0		0.5473692016601562	-2.4842802734375	0		-1.1518360595703125	-0.016087039947509766	0		-0.7583424682617188	-2.685402099609375	0		1.6818978271484375	-0.82782177734375	0		3.264803466796875	0.004766057968139648	0		4.70203466796875	0.24518928527832032	0		5.61273828125	0.19970376586914063	0		-0.34111517333984376	5.90791845703125	0		
-0.011822657585144043	-0.008851116180419921	0		0.5471685180664062	-2.48429736328125	0		-1.14796044921875	-0.012139022827148438	0		-0.7436112060546874	-2.690599609375	0		1.645781494140625	-0.8223843994140625	0		3.268705078125	0.010669463157653809	0		4.69593994140625	0.25120771789550783	0		5.6167978515625	0.18215467834472657	0		-0.37431930541992187	5.90133837890625	0		
